<svg width="42" height="47" viewBox="0 0 42 47" fill="none" xmlns="http://www.w3.org/2000/svg">
<circle opacity="0.1" cx="21.5" cy="26.5" r="20.5" fill="#0065FF"/>
<path d="M29.8511 7.76163V15.1777C29.8511 22.8097 26.3231 27.8784 23.3711 30.7872C20.1743 33.8976 16.4592 35.6256 15.12 35.6256C13.7664 35.6256 10.0656 33.8976 6.88322 30.7872C4.79782 28.7632 3.14746 26.3347 2.03324 23.6507C0.919011 20.9666 0.364371 18.0835 0.403216 15.1777V7.76163C0.397648 7.59908 0.447269 7.43938 0.544017 7.30864C0.640765 7.1779 0.778933 7.08382 0.936009 7.04163C5.81761 5.71683 10.3392 3.80154 14.76 1.19514C14.8694 1.13195 14.9936 1.09882 15.12 1.09882C15.2464 1.09882 15.3705 1.13195 15.48 1.19514C19.8114 3.74578 24.4591 5.71634 29.3039 7.05604C29.4612 7.09492 29.6009 7.18569 29.7002 7.31374C29.7995 7.44178 29.8526 7.5996 29.8511 7.76163ZM28.3967 8.30884C23.757 6.97706 19.2982 5.08125 15.12 2.66397C10.872 5.12637 6.52322 6.98404 1.84322 8.30884V15.1777C1.84322 22.3201 5.14075 27.0433 7.89115 29.7505C11.0303 32.8177 14.3712 34.1712 15.12 34.1712C15.8688 34.1712 19.2096 32.8177 22.3488 29.7505C24.2957 27.861 25.8363 25.5938 26.8763 23.088C27.9163 20.5822 28.4336 17.8905 28.3967 15.1777V8.30884ZM8.26556 9.1728C7.11356 9.6192 5.91842 10.0512 4.72322 10.44V12.7151C4.72322 12.9061 4.64731 13.0894 4.51228 13.2244C4.37725 13.3594 4.19417 13.4351 4.00322 13.4351C3.81226 13.4351 3.62909 13.3594 3.49407 13.2244C3.35904 13.0894 3.28322 12.9061 3.28322 12.7151V9.90721C3.28228 9.75326 3.33067 9.60306 3.42138 9.47866C3.51209 9.35426 3.64031 9.26223 3.78718 9.21604C5.11198 8.78404 6.43677 8.32328 7.73277 7.81928C7.82165 7.7843 7.91658 7.76714 8.01208 7.76884C8.10758 7.77053 8.20179 7.79102 8.28938 7.82913C8.37696 7.86724 8.45622 7.92212 8.52255 7.99085C8.58889 8.05957 8.64103 8.14068 8.67601 8.22956C8.71099 8.31844 8.72806 8.41337 8.72637 8.50887C8.72468 8.60438 8.70419 8.69867 8.66608 8.78626C8.62797 8.87384 8.573 8.95301 8.50427 9.01934C8.43555 9.08568 8.35444 9.13782 8.26556 9.1728ZM9.3888 7.93442C9.3484 7.84673 9.32603 7.75179 9.32306 7.65528C9.32009 7.55877 9.33656 7.46264 9.37149 7.37262C9.40642 7.28261 9.45906 7.20052 9.52635 7.13128C9.59364 7.06204 9.67424 7.00704 9.76322 6.96956H9.77754C9.86453 6.93174 9.95815 6.91145 10.053 6.90979C10.1478 6.90814 10.242 6.92512 10.3303 6.95989C10.4185 6.99466 10.4991 7.04658 10.5673 7.11247C10.6356 7.17836 10.6902 7.25698 10.728 7.34397C10.7658 7.43096 10.7861 7.52458 10.7878 7.61942C10.7894 7.71426 10.7723 7.80855 10.7376 7.8968C10.7028 7.98506 10.6511 8.06553 10.5852 8.13376C10.5193 8.20199 10.4406 8.2566 10.3536 8.29442C10.2659 8.33482 10.1709 8.35719 10.0744 8.36016C9.97793 8.36313 9.88179 8.34658 9.79178 8.31165C9.70177 8.27672 9.61976 8.22408 9.55052 8.15678C9.48128 8.08949 9.42629 8.00899 9.3888 7.92001V7.93442ZM23.9903 25.5168C22.7808 27.3754 21.2555 29.0079 19.4832 30.3407C19.3305 30.4572 19.1376 30.5082 18.9473 30.4826C18.7569 30.4569 18.5845 30.3567 18.468 30.204C18.3515 30.0512 18.3005 29.8584 18.3261 29.668C18.3518 29.4776 18.452 29.3053 18.6047 29.1888C20.2328 27.9407 21.6438 26.4324 22.7808 24.7249C22.8858 24.5645 23.0502 24.4524 23.2379 24.4132C23.4256 24.3741 23.6212 24.411 23.7816 24.516C23.942 24.6211 24.0541 24.7856 24.0933 24.9732C24.1324 25.1609 24.0954 25.3564 23.9903 25.5168ZM17.8992 30.5856C17.9505 30.6682 17.9846 30.7603 17.9994 30.8565C18.0141 30.9526 18.0092 31.0507 17.9849 31.1449C17.9607 31.2391 17.9177 31.3275 17.8584 31.4046C17.7991 31.4817 17.7248 31.5459 17.64 31.5935L17.5967 31.6079C17.5145 31.6552 17.4237 31.6859 17.3296 31.6981C17.2355 31.7103 17.14 31.7039 17.0484 31.6791C16.8634 31.6292 16.7058 31.5078 16.6103 31.3416C16.5149 31.1755 16.4894 30.9782 16.5393 30.7932C16.5893 30.6082 16.7106 30.4506 16.8767 30.3551L16.9056 30.3265C16.9882 30.2751 17.0804 30.241 17.1765 30.2263C17.2727 30.2115 17.3708 30.2163 17.465 30.2405C17.5592 30.2648 17.6475 30.3078 17.7246 30.3671C17.8017 30.4264 17.866 30.5008 17.9136 30.5856H17.8992ZM12.7872 19.4977L20.0736 12.2112C20.2919 11.99 20.552 11.8144 20.8388 11.6946C21.1255 11.5747 21.4332 11.513 21.7439 11.513C22.0547 11.513 22.3625 11.5747 22.6492 11.6946C22.936 11.8144 23.1961 11.99 23.4144 12.2112C24.336 13.1328 24.336 14.6305 23.4144 15.5521L14.4575 24.5088C14.2392 24.73 13.9791 24.9056 13.6924 25.0255C13.4056 25.1453 13.098 25.207 12.7872 25.207C12.4764 25.207 12.1687 25.1453 11.8819 25.0255C11.5952 24.9056 11.3351 24.73 11.1167 24.5088L6.82556 20.2177C6.6062 19.9983 6.43223 19.7379 6.31351 19.4513C6.19479 19.1646 6.13369 18.8574 6.13369 18.5472C6.13369 18.237 6.19479 17.9298 6.31351 17.6432C6.43223 17.3566 6.6062 17.0961 6.82556 16.8768C7.04492 16.6574 7.30536 16.4834 7.59197 16.3647C7.87857 16.246 8.18579 16.1849 8.49601 16.1849C8.80623 16.1849 9.11336 16.246 9.39996 16.3647C9.68657 16.4834 9.94701 16.6574 10.1664 16.8768L12.7872 19.4977ZM13.3056 21.0384C13.2384 21.1081 13.1579 21.1635 13.0688 21.2013C12.9797 21.2392 12.884 21.2588 12.7872 21.2588C12.6904 21.2588 12.5946 21.2392 12.5055 21.2013C12.4164 21.1635 12.336 21.1081 12.2688 21.0384L9.14394 17.8993C9.05947 17.8131 8.95866 17.7446 8.8474 17.6978C8.73613 17.6511 8.6167 17.627 8.49601 17.627C8.37532 17.627 8.2558 17.6511 8.14454 17.6978C8.03327 17.7446 7.93246 17.8131 7.84799 17.8993C7.76178 17.9838 7.6933 18.0846 7.64655 18.1958C7.59979 18.3071 7.57571 18.4265 7.57571 18.5472C7.57571 18.6679 7.59979 18.7873 7.64655 18.8986C7.6933 19.0099 7.76178 19.1107 7.84799 19.1951L12.1392 23.4865C12.2236 23.5727 12.3244 23.6412 12.4357 23.6879C12.547 23.7347 12.6665 23.7588 12.7872 23.7588C12.9079 23.7588 13.0274 23.7347 13.1387 23.6879C13.2499 23.6412 13.3507 23.5727 13.4352 23.4865L22.392 14.5296C22.5638 14.3577 22.6604 14.1247 22.6604 13.8816C22.6604 13.6386 22.5638 13.4054 22.392 13.2335C22.2201 13.0617 21.987 12.9653 21.7439 12.9653C21.5009 12.9653 21.2679 13.0617 21.096 13.2335L13.3056 21.0384Z" fill="#0080FF"/>
</svg>
