<svg width="55" height="48" viewBox="0 0 55 48" fill="none" xmlns="http://www.w3.org/2000/svg">
<circle opacity="0.1" cx="20.5" cy="27.5" r="20.5" fill="#0065FF"/>
<g clip-path="url(#clip0)">
<path d="M21.0607 15.84C21.1885 15.8238 21.3182 15.835 21.4413 15.8729C21.5644 15.9107 21.6781 15.9742 21.7747 16.0594C21.8713 16.1445 21.9487 16.2493 22.0017 16.3666C22.0547 16.484 22.082 16.6112 22.082 16.74C22.082 16.8687 22.0547 16.996 22.0017 17.1133C21.9487 17.2307 21.8713 17.3355 21.7747 17.4206C21.6781 17.5057 21.5644 17.5693 21.4413 17.6071C21.3182 17.6449 21.1885 17.6562 21.0607 17.64C20.8201 17.64 20.5894 17.5443 20.4193 17.3742C20.2492 17.2041 20.1535 16.9734 20.1535 16.7328C20.1535 16.4922 20.2492 16.2615 20.4193 16.0913C20.5894 15.9212 20.8201 15.8256 21.0607 15.8256V15.84ZM26.216 18.8351C26.4566 18.8351 26.6873 18.9308 26.8574 19.1009C27.0276 19.271 27.1232 19.5017 27.1232 19.7423C27.1232 19.9829 27.0276 20.2138 26.8574 20.3839C26.6873 20.5541 26.4566 20.6495 26.216 20.6495C25.9754 20.6495 25.7446 20.5541 25.5744 20.3839C25.4043 20.2138 25.3088 19.9829 25.3088 19.7423C25.3088 19.5017 25.4043 19.271 25.5744 19.1009C25.7446 18.9308 25.9754 18.8351 26.216 18.8351ZM31.3567 13.2479C31.4845 13.2317 31.6142 13.243 31.7373 13.2808C31.8604 13.3186 31.974 13.3822 32.0706 13.4673C32.1672 13.5524 32.2447 13.6572 32.2977 13.7746C32.3507 13.8919 32.378 14.0191 32.378 14.1479C32.378 14.2767 32.3507 14.4041 32.2977 14.5214C32.2447 14.6388 32.1672 14.7434 32.0706 14.8285C31.974 14.9137 31.8604 14.9774 31.7373 15.0152C31.6142 15.053 31.4845 15.0641 31.3567 15.0479C31.1376 15.0201 30.9362 14.9135 30.7902 14.7479C30.6442 14.5822 30.5636 14.3688 30.5636 14.1479C30.5636 13.9271 30.6442 13.7138 30.7902 13.5481C30.9362 13.3825 31.1376 13.2757 31.3567 13.2479ZM36.3967 15.4656C36.6373 15.4656 36.8682 15.5612 37.0383 15.7313C37.2085 15.9015 37.304 16.1322 37.304 16.3728C37.304 16.6134 37.2085 16.8441 37.0383 17.0142C36.8682 17.1843 36.6373 17.28 36.3967 17.28C36.1561 17.28 35.9255 17.1843 35.7553 17.0142C35.5852 16.8441 35.4895 16.6134 35.4895 16.3728C35.4895 16.1322 35.5852 15.9015 35.7553 15.7313C35.9255 15.5612 36.1561 15.4656 36.3967 15.4656ZM41.3648 9.08647C41.6055 9.08647 41.8361 9.18194 42.0063 9.35207C42.1764 9.5222 42.2721 9.75289 42.2721 9.9935C42.2721 10.2341 42.1764 10.465 42.0063 10.6351C41.8361 10.8052 41.6055 10.9007 41.3648 10.9007C41.1242 10.9007 40.8934 10.8052 40.7232 10.6351C40.5531 10.465 40.4576 10.2341 40.4576 9.9935C40.4576 9.75289 40.5531 9.5222 40.7232 9.35207C40.8934 9.18194 41.1242 9.08647 41.3648 9.08647ZM54.1521 28.7279V30.1393C54.1521 32.9761 51.848 35.2944 49.0112 35.2944H13.0688C11.7041 35.2906 10.3965 34.7457 9.43278 33.7793C8.46911 32.813 7.92791 31.504 7.92792 30.1393V28.7279C7.92792 28.2239 8.33112 27.8207 8.83512 27.8207H11.0672V4.4207C11.0672 3.43537 11.4585 2.49039 12.1553 1.79365C12.852 1.09692 13.797 0.705566 14.7823 0.705566H47.2976C48.283 0.705566 49.228 1.09692 49.9247 1.79365C50.6214 2.49039 51.0128 3.43537 51.0128 4.4207V21.816C51.0128 21.9352 50.9893 22.0531 50.9437 22.1632C50.8981 22.2733 50.8312 22.3732 50.747 22.4574C50.6628 22.5417 50.5628 22.6086 50.4527 22.6541C50.3427 22.6997 50.2247 22.7232 50.1056 22.7232C49.9864 22.7232 49.8685 22.6997 49.7584 22.6541C49.6483 22.6086 49.5484 22.5417 49.4641 22.4574C49.3799 22.3732 49.313 22.2733 49.2674 22.1632C49.2219 22.0531 49.1984 21.9352 49.1984 21.816V4.4207C49.1984 3.3695 48.3488 2.51998 47.2976 2.51998H14.7823C13.7311 2.51998 12.8816 3.3695 12.8816 4.4207V27.8207H27.0944C27.584 27.8207 27.9872 28.2239 27.9872 28.7279C27.9872 29.5631 28.6783 30.24 29.5135 30.24H32.5376C33.3728 30.24 34.064 29.5631 34.064 28.7279C34.064 28.2239 34.4672 27.8207 34.9712 27.8207H53.2593C53.7489 27.8207 54.1521 28.2239 54.1521 28.7279ZM52.3521 29.6207H35.7488C35.5513 30.3206 35.1309 30.937 34.5514 31.3762C33.9718 31.8154 33.2648 32.0535 32.5376 32.0544H29.5135C28.7888 32.0504 28.0852 31.8108 27.5085 31.3718C26.9319 30.9329 26.5135 30.3182 26.3167 29.6207H9.72792V30.1393C9.72792 31.0253 10.08 31.8749 10.7065 32.5014C11.333 33.1279 12.1828 33.48 13.0688 33.48H49.0112C49.8972 33.48 50.747 33.1279 51.3735 32.5014C52 31.8749 52.3521 31.0253 52.3521 30.1393V29.6207ZM47.3121 5.47205V24.9121C47.3121 25.4161 46.9088 25.8335 46.4049 25.8335H15.9776C15.7395 25.8297 15.5124 25.7325 15.3454 25.5628C15.1783 25.3931 15.0848 25.1646 15.0849 24.9265V5.47205C15.0849 4.96805 15.488 4.56484 15.9776 4.56484H46.4049C46.9088 4.56484 47.3121 4.96805 47.3121 5.47205ZM45.4976 6.36484H16.8849V24.0193H20.1535V20.4335C20.1535 20.1929 20.2492 19.9622 20.4193 19.7921C20.5894 19.6219 20.8201 19.5265 21.0607 19.5265C21.3013 19.5265 21.5322 19.6219 21.7023 19.7921C21.8724 19.9622 21.9679 20.1929 21.9679 20.4335V24.0335H25.2367V23.1551C25.2206 23.0274 25.2318 22.8976 25.2696 22.7746C25.3074 22.6515 25.371 22.5379 25.4561 22.4413C25.5413 22.3447 25.646 22.2673 25.7634 22.2143C25.8807 22.1613 26.008 22.1338 26.1367 22.1338C26.2655 22.1338 26.3929 22.1613 26.5103 22.2143C26.6276 22.2673 26.7322 22.3447 26.8174 22.4413C26.9025 22.5379 26.9662 22.6515 27.004 22.7746C27.0419 22.8976 27.0529 23.0274 27.0367 23.1551V24.0193H30.3056V17.9135C30.3056 17.7944 30.3291 17.6764 30.3747 17.5663C30.4202 17.4563 30.4871 17.3563 30.5714 17.2721C30.6556 17.1878 30.7555 17.121 30.8656 17.0754C30.9757 17.0298 31.0936 17.0065 31.2128 17.0065C31.3319 17.0065 31.4499 17.0298 31.5599 17.0754C31.67 17.121 31.77 17.1878 31.8542 17.2721C31.9384 17.3563 32.0053 17.4563 32.0509 17.5663C32.0965 17.6764 32.12 17.7944 32.12 17.9135V24.0193H35.3888V20.0016C35.3726 19.8739 35.3839 19.7441 35.4217 19.621C35.4595 19.498 35.5231 19.3844 35.6082 19.2878C35.6933 19.1912 35.7981 19.1136 35.9155 19.0606C36.0328 19.0076 36.16 18.9803 36.2888 18.9803C36.4176 18.9803 36.5448 19.0076 36.6622 19.0606C36.7795 19.1136 36.8843 19.1912 36.9694 19.2878C37.0546 19.3844 37.1181 19.498 37.1559 19.621C37.1938 19.7441 37.205 19.8739 37.1888 20.0016V24.0335H40.4576V13.1904C40.4576 12.9498 40.5531 12.719 40.7232 12.5488C40.8934 12.3787 41.1242 12.2832 41.3648 12.2832C41.6055 12.2832 41.8361 12.3787 42.0063 12.5488C42.1764 12.719 42.2721 12.9498 42.2721 13.1904V24.0193H45.4976V6.36484ZM50.0048 24.4367C50.1326 24.4206 50.2623 24.4318 50.3854 24.4696C50.5085 24.5074 50.6221 24.571 50.7187 24.6561C50.8153 24.7413 50.8926 24.846 50.9456 24.9634C50.9986 25.0807 51.0261 25.208 51.0261 25.3367C51.0261 25.4655 50.9986 25.5929 50.9456 25.7103C50.8926 25.8276 50.8153 25.9322 50.7187 26.0174C50.6221 26.1025 50.5085 26.1662 50.3854 26.204C50.2623 26.2419 50.1326 26.2529 50.0048 26.2367C49.7858 26.209 49.5843 26.1022 49.4383 25.9365C49.2923 25.7708 49.2117 25.5576 49.2117 25.3367C49.2117 25.1159 49.2923 24.9027 49.4383 24.737C49.5843 24.5713 49.7858 24.4645 50.0048 24.4367Z" fill="#0080FF"/>
</g>
<defs>
<clipPath id="clip0">
<rect width="46.08" height="36" fill="white" transform="translate(8)"/>
</clipPath>
</defs>
</svg>
