<svg width="41" height="56" viewBox="0 0 41 56" fill="none" xmlns="http://www.w3.org/2000/svg">
<circle opacity="0.1" cx="20.5" cy="20.5" r="20.5" fill="#0065FF"/>
<g clip-path="url(#clip0)">
<path d="M28.6364 39.7836C28.5826 39.8392 28.5427 39.9068 28.5199 39.9807C28.4972 40.0547 28.4922 40.1328 28.5055 40.2091L29.8963 48.26C29.9589 48.6104 29.9435 48.9702 29.8512 49.3139C29.7588 49.6576 29.5919 49.9767 29.3622 50.2486C29.1325 50.5204 28.8458 50.7381 28.5224 50.8866C28.1989 51.035 27.8467 51.1104 27.4909 51.1073C27.0921 51.109 26.699 51.0134 26.3455 50.829L19.1291 47.0328C19.0585 46.9955 18.9798 46.976 18.9 46.976C18.8201 46.976 18.7415 46.9955 18.6709 47.0328L11.4382 50.829C11.0363 51.0466 10.5811 51.1461 10.1251 51.1159C9.66913 51.0857 9.23102 50.9269 8.86138 50.6583C8.49173 50.3896 8.20563 50.0218 8.03615 49.5974C7.86668 49.173 7.82073 48.7094 7.90362 48.26L9.29454 40.2091C9.30571 40.1315 9.29818 40.0526 9.27256 39.9785C9.24694 39.9045 9.20398 39.8376 9.14727 39.7836L3.30544 34.0891C2.63453 33.4345 2.38912 32.469 2.68366 31.5854C2.97821 30.7018 3.73091 30.0636 4.64727 29.9326L12.7309 28.7545C12.8102 28.7448 12.8859 28.7158 12.9515 28.6702C13.0171 28.6246 13.0706 28.5636 13.1073 28.4926L16.7073 21.1618C17.1327 20.3272 17.9673 19.8036 18.9 19.8036C19.8327 19.8036 20.6673 20.3272 21.0928 21.1618L24.6927 28.4926C24.7294 28.5636 24.7829 28.6246 24.8485 28.6702C24.9141 28.7158 24.9898 28.7448 25.0691 28.7545L33.1527 29.9326C33.449 29.6508 33.8118 29.4486 34.2073 29.3448C34.6029 29.241 35.0182 29.2391 35.4147 29.3392C35.8112 29.4393 36.1759 29.638 36.4748 29.9171C36.7736 30.1961 36.997 30.5465 37.124 30.9352C37.2511 31.3239 37.2776 31.7384 37.2012 32.1401C37.1247 32.5418 36.9478 32.9177 36.6869 33.2325C36.4261 33.5474 36.0897 33.7911 35.7092 33.9409C35.3287 34.0906 34.9164 34.1416 34.5109 34.0891L28.6364 39.7836ZM27.2945 38.3927L33.1364 32.6818C33.3327 32.5018 33.3 32.2727 33.2672 32.1908C33.2399 32.1045 33.1883 32.0279 33.1187 31.9699C33.0491 31.9119 32.9644 31.875 32.8745 31.8636L24.7909 30.6855C23.9891 30.571 23.3182 30.0636 22.9582 29.3436L19.3418 22.0291C19.3018 21.9458 19.2391 21.8755 19.161 21.8263C19.0828 21.7771 18.9923 21.7509 18.9 21.7508C18.8076 21.7509 18.7172 21.7771 18.6391 21.8263C18.5609 21.8755 18.4982 21.9458 18.4582 22.0291L14.8582 29.3436C14.4982 30.0636 13.8109 30.571 13.0091 30.6855L4.92547 31.8636C4.8356 31.875 4.75087 31.9119 4.68128 31.9699C4.61169 32.0279 4.56011 32.1045 4.53271 32.1908C4.50576 32.2767 4.50379 32.3684 4.52697 32.4553C4.55015 32.5422 4.59755 32.6208 4.66365 32.6818L10.5055 38.3927C11.0782 38.9491 11.34 39.751 11.2091 40.5364L9.83457 48.5872C9.78547 48.8654 9.9491 49.0128 10.0309 49.0782C10.0964 49.1273 10.2927 49.2419 10.5382 49.111L17.7709 45.2981C18.1198 45.1174 18.507 45.0231 18.9 45.0231C19.2929 45.0231 19.6802 45.1174 20.0291 45.2981L27.2618 49.111C27.5073 49.2255 27.7037 49.1109 27.7855 49.0618C27.8573 49.0079 27.9124 48.9347 27.9442 48.8507C27.9761 48.7667 27.9834 48.6753 27.9654 48.5872L26.5909 40.5364C26.46 39.751 26.7218 38.9491 27.2945 38.3927ZM30.5018 22.5201L29.4709 23.9437C29.3174 24.1499 29.0892 24.2876 28.8353 24.3274C28.5813 24.3672 28.3219 24.3058 28.1127 24.1564C27.9039 24.0054 27.7629 23.7783 27.7201 23.5242C27.6772 23.2701 27.736 23.0093 27.8836 22.7981L28.9309 21.3745C29.0957 21.2049 29.3162 21.1005 29.5519 21.0805C29.7875 21.0604 30.0225 21.1261 30.2136 21.2654C30.4047 21.4048 30.5391 21.6084 30.592 21.8389C30.645 22.0694 30.613 22.3113 30.5018 22.5201ZM9.6873 24.1564C9.47812 24.3058 9.21869 24.3672 8.96475 24.3274C8.7108 24.2876 8.48257 24.1499 8.32909 23.9437L7.29817 22.5201C7.20021 22.4192 7.12508 22.2985 7.0778 22.1661C7.03051 22.0337 7.01219 21.8927 7.02411 21.7526C7.03604 21.6125 7.07793 21.4766 7.14691 21.3541C7.21589 21.2316 7.31037 21.1253 7.42396 21.0425C7.53756 20.9597 7.66762 20.9023 7.80534 20.8741C7.94306 20.8459 8.08521 20.8474 8.22222 20.8789C8.35924 20.9104 8.4879 20.971 8.5995 21.0565C8.7111 21.142 8.80306 21.2504 8.86912 21.3745L9.89998 22.7981C10.0494 23.0073 10.1108 23.2667 10.071 23.5206C10.0312 23.7746 9.89349 24.003 9.6873 24.1564ZM3.38729 42.8927L1.70184 43.4326C1.46827 43.4754 1.22711 43.4322 1.02303 43.3108C0.818954 43.1894 0.665759 42.9981 0.591868 42.7725C0.517978 42.5468 0.528375 42.3021 0.621132 42.0835C0.713889 41.8649 0.882755 41.6872 1.09639 41.5835L2.78184 41.0436C2.90791 40.9825 3.04556 40.9491 3.18564 40.9455C3.32572 40.942 3.46494 40.9685 3.59393 41.0232C3.72292 41.078 3.83872 41.1595 3.93351 41.2627C4.0283 41.3659 4.0999 41.4883 4.1435 41.6215C4.1871 41.7547 4.20169 41.8955 4.18629 42.0348C4.1709 42.1741 4.12584 42.3085 4.05421 42.4289C3.98257 42.5493 3.886 42.6531 3.77096 42.7331C3.65592 42.8131 3.52512 42.8675 3.38729 42.8927ZM19.8818 53.4636V55.2146C19.8818 55.475 19.7784 55.7246 19.5943 55.9087C19.4101 56.0928 19.1604 56.1964 18.9 56.1964C18.6396 56.1964 18.3899 56.0928 18.2057 55.9087C18.0216 55.7246 17.9182 55.475 17.9182 55.2146V53.4636C17.9182 53.2032 18.0216 52.9535 18.2057 52.7694C18.3899 52.5853 18.6396 52.4818 18.9 52.4818C19.1604 52.4818 19.4101 52.5853 19.5943 52.7694C19.7784 52.9535 19.8818 53.2032 19.8818 53.4636ZM37.3254 42.8272C37.2399 43.068 37.0638 43.2661 36.8347 43.3791C36.6055 43.4922 36.3413 43.5113 36.0982 43.4326L34.4291 42.8927C34.2892 42.8708 34.1557 42.8188 34.0377 42.7405C33.9198 42.6622 33.8202 42.5593 33.7458 42.4389C33.6713 42.3184 33.6238 42.1833 33.6065 42.0428C33.5892 41.9022 33.6025 41.7596 33.6455 41.6247C33.6885 41.4898 33.7601 41.3658 33.8555 41.2611C33.9509 41.1565 34.0678 41.0738 34.1982 41.0186C34.3286 40.9635 34.4694 40.937 34.6109 40.9413C34.7525 40.9457 34.8914 40.9806 35.0182 41.0436L36.7036 41.5835C37.1945 41.7472 37.4891 42.3035 37.3254 42.8108V42.8272Z" fill="#0080FF"/>
</g>
<defs>
<clipPath id="clip0">
<rect width="37.6364" height="36" fill="white" transform="translate(0 20)"/>
</clipPath>
</defs>
</svg>
