<svg width="54" height="44" viewBox="0 0 54 44" fill="none" xmlns="http://www.w3.org/2000/svg">
<circle opacity="0.1" cx="33.5" cy="23.5" r="20.5" fill="#0065FF"/>
<g clip-path="url(#clip0)">
<path d="M29.61 10.9799C29.6139 11.4427 29.526 11.9017 29.3512 12.3301C29.1764 12.7586 28.9182 13.1481 28.5917 13.476C28.2652 13.8039 27.8767 14.0639 27.4489 14.2405C27.0212 14.4171 26.5628 14.5071 26.1 14.5051C25.636 14.5091 25.1758 14.4206 24.7463 14.2449C24.3168 14.0691 23.9265 13.8096 23.5984 13.4815C23.2703 13.1534 23.011 12.7631 22.8352 12.3336C22.6595 11.9041 22.571 11.4439 22.575 10.9799C22.573 10.5172 22.6628 10.0587 22.8394 9.63098C23.0161 9.20324 23.276 8.81475 23.6039 8.48822C23.9318 8.16169 24.3213 7.9035 24.7498 7.7287C25.1783 7.5539 25.6373 7.46599 26.1 7.46997C26.5615 7.46799 27.0187 7.5574 27.4455 7.73309C27.8722 7.90878 28.2601 8.16738 28.5864 8.49371C28.9127 8.82004 29.1711 9.20771 29.3468 9.63446C29.5225 10.0612 29.6119 10.5184 29.61 10.9799ZM28.2151 10.9799C28.2151 10.7029 28.1602 10.4287 28.0537 10.173C27.9473 9.91721 27.7911 9.68501 27.5945 9.48981C27.3979 9.29461 27.1648 9.14017 26.9082 9.03552C26.6517 8.93087 26.377 8.87809 26.1 8.88007C25.5431 8.88007 25.0088 9.10129 24.615 9.49512C24.2212 9.88894 24 10.423 24 10.9799C24 11.2557 24.0543 11.5288 24.1598 11.7836C24.2654 12.0384 24.42 12.2699 24.615 12.4649C24.81 12.6599 25.0416 12.8146 25.2964 12.9201C25.5511 13.0256 25.8242 13.08 26.1 13.08C26.3758 13.08 26.6489 13.0256 26.9037 12.9201C27.1584 12.8146 27.3898 12.6599 27.5848 12.4649C27.7798 12.2699 27.9347 12.0384 28.0402 11.7836C28.1457 11.5288 28.2 11.2557 28.2 10.9799H28.2151ZM36.225 8.28003L35.805 9.29993C33.5962 13.8567 30.5185 17.9382 26.7449 21.3149V26.79C26.7449 27 26.64 27.21 26.46 27.345L15.435 35.8651C15.3135 35.9552 15.1662 36.0038 15.015 36.0038C14.8637 36.0038 14.7164 35.9552 14.5949 35.8651C14.4763 35.7779 14.388 35.6558 14.3423 35.5159C14.2965 35.376 14.2958 35.2254 14.3401 35.085L16.9651 27.195L16.6649 26.9099L16.14 27.4501C15.9643 27.6274 15.7552 27.768 15.5248 27.8641C15.2943 27.9601 15.0471 28.0096 14.7975 28.0096C14.5478 28.0096 14.3006 27.9601 14.0702 27.8641C13.8397 27.768 13.6306 27.6274 13.4549 27.4501L12.8401 26.835L10.4699 29.1899C10.3012 29.3605 10.1003 29.4958 9.87888 29.5882C9.65745 29.6806 9.41989 29.7283 9.17996 29.7283C8.94004 29.7283 8.70247 29.6806 8.48105 29.5882C8.25963 29.4958 8.05876 29.3605 7.88999 29.1899C7.71718 29.0209 7.57988 28.8191 7.48615 28.5963C7.39241 28.3735 7.34415 28.1342 7.34415 27.8925C7.34415 27.6507 7.39241 27.4114 7.48615 27.1886C7.57988 26.9658 7.71718 26.764 7.88999 26.595L10.2449 24.2401L9.61502 23.625C9.43586 23.4503 9.29348 23.2416 9.19626 23.011C9.09904 22.7805 9.04886 22.5327 9.04886 22.2825C9.04886 22.0322 9.09904 21.7846 9.19626 21.5541C9.29348 21.3235 9.43586 21.1146 9.61502 20.9399L10.155 20.4L9.88492 20.1151L1.995 22.7401C1.85243 22.7861 1.69889 22.7857 1.55664 22.7386C1.41439 22.6915 1.29082 22.6003 1.20389 22.4782C1.11696 22.3562 1.07115 22.2096 1.07315 22.0598C1.07515 21.91 1.12481 21.7648 1.21497 21.6451L9.73496 10.6199C9.7994 10.533 9.88298 10.4623 9.97922 10.4128C10.0755 10.3634 10.1818 10.3368 10.2899 10.335H15.765C16.11 9.97502 16.4549 9.60007 16.8149 9.25507C22.4399 3.63007 28.725 -0.0150146 32.82 -0.0150146C34.155 -0.0150146 35.2199 0.375 35.9699 1.125C37.3799 2.535 37.47 5.05503 36.225 8.28003ZM14.49 11.7449H10.6349L3.73496 20.6851L9.58499 18.735C10.785 16.485 12.48 14.0699 14.49 11.7449ZM10.6199 22.6199L11.235 23.25L12.1349 22.3651L11.1599 21.405L10.6199 21.945C10.5345 22.0366 10.4872 22.1572 10.4872 22.2825C10.4872 22.4077 10.5345 22.5283 10.6199 22.6199ZM20.5499 17.1301C20.7149 16.9651 20.7149 16.68 20.5499 16.53C20.5103 16.4912 20.4635 16.4605 20.412 16.4399C20.3605 16.4193 20.3054 16.4091 20.25 16.4099C20.1945 16.4091 20.1394 16.4193 20.0879 16.4399C20.0364 16.4605 19.9897 16.4912 19.95 16.53L8.87995 27.6C8.84113 27.6396 8.81055 27.6864 8.78995 27.7379C8.76935 27.7894 8.75922 27.8445 8.76001 27.9C8.76001 28.005 8.80495 28.1101 8.87995 28.2001C8.96995 28.2751 9.07496 28.32 9.17996 28.32C9.29996 28.32 9.40489 28.2751 9.47989 28.2001L20.5499 17.1301ZM15.6749 25.92L14.7151 24.96L13.8299 25.83L14.46 26.46C14.55 26.55 14.6699 26.61 14.7899 26.61C14.9399 26.61 15.0449 26.55 15.1349 26.46L15.6749 25.92ZM25.335 22.5901C23.194 24.4791 20.8495 26.124 18.3449 27.4949L16.3951 33.345L25.335 26.445V22.5901ZM34.545 8.65503C32.9965 8.44335 31.5598 7.73045 30.4546 6.62531C29.3495 5.52016 28.6366 4.08343 28.4249 2.53491C24.4678 4.46753 20.8789 7.07679 17.82 10.2449C15.1146 12.8889 12.7922 15.8981 10.92 19.1851L11.1599 19.4099L12.7049 17.8651C12.7665 17.7868 12.8441 17.7224 12.9323 17.6763C13.0206 17.6301 13.1178 17.6031 13.2173 17.5972C13.3167 17.5913 13.4162 17.6065 13.5093 17.6418C13.6024 17.6772 13.6872 17.732 13.7576 17.8024C13.8281 17.8729 13.8826 17.9574 13.918 18.0505C13.9534 18.1437 13.9688 18.2433 13.9629 18.3428C13.957 18.4422 13.9299 18.5394 13.8838 18.6277C13.8376 18.716 13.7733 18.7933 13.695 18.8549L12.1499 20.4L13.125 21.375L18.975 15.525C19.1555 15.3446 19.372 15.2044 19.6104 15.1133C19.8488 15.0223 20.1038 14.9825 20.3586 14.9967C20.6133 15.0109 20.8621 15.0787 21.089 15.1956C21.3158 15.3124 21.5155 15.4757 21.6749 15.6749C21.7115 15.7238 21.7467 15.7739 21.78 15.8251C21.885 15.9751 21.96 16.125 22.005 16.305L22.0349 16.3801V16.4099L22.0499 16.47V16.5601C22.0914 16.7831 22.0914 17.0119 22.0499 17.235L22.0349 17.265L22.005 17.3401C21.96 17.4901 21.9151 17.6249 21.8401 17.7449C21.826 17.7705 21.8109 17.7956 21.795 17.82L21.735 17.8951L21.6899 17.955L21.6749 17.985L21.63 18.03L21.615 18.045L21.57 18.1049H21.555L15.7049 23.955L16.68 24.93L18.225 23.3849C18.2866 23.3067 18.3641 23.2423 18.4524 23.1962C18.5407 23.15 18.6377 23.1232 18.7372 23.1172C18.8366 23.1113 18.9363 23.1265 19.0294 23.1619C19.1225 23.1973 19.207 23.2521 19.2775 23.3225C19.3479 23.393 19.4027 23.4775 19.4381 23.5706C19.4735 23.6638 19.4887 23.7634 19.4828 23.8629C19.4768 23.9623 19.45 24.0593 19.4038 24.1476C19.3577 24.2359 19.2934 24.3134 19.2151 24.375L17.67 25.92L17.8951 26.1451C21.1809 24.2772 24.1898 21.9597 26.835 19.2599C30.285 15.8099 33.015 12.0601 34.515 8.71509L34.545 8.65503ZM34.9651 2.11505C34.4851 1.63505 33.765 1.39508 32.82 1.39508C31.92 1.39508 30.8999 1.60493 29.7749 1.99493C29.8726 3.37097 30.4634 4.66566 31.4388 5.64111C32.4143 6.61656 33.709 7.20734 35.085 7.30499C35.925 4.90499 35.8951 3.04505 34.9651 2.11505ZM20.655 22.9351C20.5894 23.0017 20.5111 23.0546 20.4248 23.0907C20.3386 23.1268 20.2461 23.1454 20.1526 23.1454C20.059 23.1454 19.9664 23.1268 19.8801 23.0907C19.7938 23.0546 19.7155 23.0017 19.6499 22.9351C19.5243 22.8038 19.4542 22.6291 19.4542 22.4474C19.4542 22.2658 19.5243 22.0912 19.6499 21.96V21.945C19.7149 21.879 19.7924 21.8266 19.8777 21.7905C19.963 21.7544 20.0546 21.7353 20.1472 21.7346C20.2399 21.7339 20.3317 21.7515 20.4175 21.7863C20.5034 21.8211 20.5815 21.8725 20.6475 21.9375C20.7135 22.0025 20.7659 22.0798 20.802 22.1651C20.8381 22.2504 20.8572 22.342 20.8579 22.4346C20.8586 22.5273 20.8409 22.6192 20.8061 22.7051C20.7713 22.7909 20.72 22.8691 20.655 22.9351ZM15.1349 17.415V17.43C15.0693 17.4967 14.9912 17.5497 14.9049 17.5858C14.8187 17.622 14.726 17.6406 14.6325 17.6406C14.5389 17.6406 14.4463 17.622 14.36 17.5858C14.2737 17.5497 14.1956 17.4967 14.13 17.43C14 17.2981 13.927 17.1203 13.927 16.9351C13.927 16.7498 14 16.5719 14.13 16.4399V16.4249C14.195 16.3589 14.2723 16.3065 14.3576 16.2704C14.4429 16.2343 14.5345 16.2154 14.6272 16.2147C14.7198 16.214 14.8116 16.2316 14.8974 16.2664C14.9833 16.3012 15.0614 16.3524 15.1274 16.4174C15.1934 16.4824 15.246 16.5599 15.2821 16.6452C15.3182 16.7305 15.3371 16.8221 15.3378 16.9147C15.3385 17.0074 15.321 17.0992 15.2862 17.185C15.2514 17.2708 15.1999 17.349 15.1349 17.415Z" fill="#0080FF"/>
</g>
<defs>
<clipPath id="clip0">
<rect width="37.5" height="36" fill="white"/>
</clipPath>
</defs>
</svg>
